<svg width="181" height="40" viewBox="0 0 181 40" fill="none" xmlns="http://www.w3.org/2000/svg">
<g clip-path="url(#clip0)">
<path fill-rule="evenodd" clip-rule="evenodd" d="M1.45117 2.21989C1.45117 1.32341 2.17687 0.640381 3.03063 0.640381C3.88439 0.640381 4.61009 1.3661 4.61009 2.21989C4.61009 3.07368 3.92708 3.84209 3.03063 3.84209C2.13418 3.84209 1.45117 3.11637 1.45117 2.21989Z" fill="white"/>
<path fill-rule="evenodd" clip-rule="evenodd" d="M29.1562 18.8688C29.1562 17.9723 29.8819 17.2893 30.7357 17.2893C31.5895 17.2893 32.3152 18.015 32.3152 18.8688C32.3152 19.7653 31.5895 20.4483 30.7357 20.4483C29.8819 20.4483 29.1562 19.7226 29.1562 18.8688Z" fill="white"/>
<path fill-rule="evenodd" clip-rule="evenodd" d="M11.4829 10.5868C11.4829 9.69036 12.2086 9.00732 13.0624 9.00732C13.9161 9.00732 14.6418 9.73304 14.6418 10.5868C14.6418 11.4406 14.0015 12.1663 13.0624 12.1663C12.1232 12.1663 11.4829 11.4833 11.4829 10.5868Z" fill="white"/>
<path fill-rule="evenodd" clip-rule="evenodd" d="M11.4829 27.1078C11.4829 26.2114 12.2086 25.5283 13.0624 25.5283C13.9161 25.5283 14.6418 26.254 14.6418 27.1078C14.6418 28.0043 13.9161 28.6873 13.0624 28.6873C12.2086 28.6873 11.4829 28.0043 11.4829 27.1078Z" fill="white"/>
<path fill-rule="evenodd" clip-rule="evenodd" d="M40.2974 35.3896C40.2974 34.4931 41.0231 33.8101 41.8768 33.8101C42.7306 33.8101 43.4563 34.5358 43.4563 35.3896C43.4563 36.2434 42.7306 36.9691 41.8768 36.9691C41.0231 36.9691 40.2974 36.2861 40.2974 35.3896Z" fill="white"/>
<path fill-rule="evenodd" clip-rule="evenodd" d="M39.0598 0.640381H7.55602C6.65957 0.640381 5.97656 1.3661 5.97656 2.21989C5.97656 3.07368 6.65957 3.84209 7.55602 3.84209H38.9318C38.9318 3.84209 38.9318 3.84209 39.0172 3.84209C40.3405 3.75671 41.5784 4.90932 41.5784 6.23269C41.6638 7.64145 40.5112 8.79406 39.1879 8.87944H17.7158C16.8193 8.87944 16.1363 9.60516 16.1363 10.4589C16.1363 11.3127 16.862 12.0385 17.7158 12.0385H39.316C42.5176 11.9531 44.9935 9.17826 44.8227 6.06194C44.7374 3.03099 42.1761 0.640381 39.0598 0.640381Z" fill="white"/>
<path fill-rule="evenodd" clip-rule="evenodd" d="M38.9744 17.1611H35.4313C34.5348 17.1611 33.8518 17.8868 33.8518 18.7406C33.8518 19.6371 34.5775 20.3201 35.4313 20.3201H38.9744H39.0597C40.3831 20.3201 41.5357 21.3873 41.621 22.7107C41.7064 24.1195 40.5538 25.2721 39.2305 25.3575C39.1451 25.3575 39.1451 25.3575 39.0597 25.3575C38.9744 25.3575 38.889 25.3575 38.8036 25.3575H17.7157C16.8192 25.3575 16.1362 26.0832 16.1362 26.937C16.1362 27.8334 16.8619 28.5165 17.7157 28.5165H38.8036C38.889 28.5165 38.9744 28.5165 39.0597 28.5165C39.1451 28.5165 39.2305 28.5165 39.3159 28.5165C39.3159 28.5165 39.3159 28.5165 39.4012 28.5165C42.6029 28.4311 45.0788 25.6563 44.908 22.5399C44.7373 19.5517 42.0906 17.0757 38.9744 17.1611Z" fill="white"/>
<path fill-rule="evenodd" clip-rule="evenodd" d="M26.2532 17.2466H6.40326C6.31788 17.2466 6.31788 17.2466 6.23251 17.2466C6.14713 17.2466 6.06175 17.2466 5.97638 17.2466C5.33606 17.2466 4.65305 17.0758 4.18348 16.5208C3.67122 16.0939 3.3724 15.4536 3.3724 14.7279C3.28703 13.3191 4.43961 12.1665 5.76294 12.0811C5.76294 12.0811 5.76294 12.0811 5.84831 12.0811H5.97638H8.62304C9.51949 12.0811 10.2025 11.3554 10.2025 10.5016C10.2025 9.64784 9.4768 8.92212 8.62304 8.92212H5.97638H5.891C5.80562 8.92212 5.80562 8.92212 5.72025 8.92212C2.51864 8.96481 4.16338e-05 11.7396 0.170794 14.8559C0.25617 16.3501 0.896492 17.8015 2.04907 18.8688C3.11627 19.8506 4.52498 20.3629 5.97638 20.3629C6.06175 20.3629 6.14713 20.3629 6.23251 20.3629H6.31788C6.40326 20.3629 6.48863 20.3629 6.57401 20.3629H26.424C27.3204 20.3629 28.0034 19.6372 28.0034 18.7834C27.8327 17.9723 27.1497 17.2466 26.2532 17.2466Z" fill="white"/>
<path fill-rule="evenodd" clip-rule="evenodd" d="M37.2668 33.81H6.65937C6.574 33.81 6.48862 33.81 6.31787 33.81C6.23249 33.81 6.06174 33.81 5.97636 33.81C5.33604 33.81 4.65303 33.6393 4.18346 33.0843C3.6712 32.6574 3.37239 32.0171 3.37239 31.2914C3.28701 29.8826 4.43959 28.73 5.76292 28.6446H5.8483C5.93367 28.6446 5.93367 28.6446 6.01905 28.6446H8.58034C9.47679 28.6446 10.1598 27.9189 10.1598 27.0651C10.1598 26.2113 9.4341 25.4856 8.58034 25.4856H5.97636C5.89099 25.4856 5.89099 25.4856 5.80561 25.4856C5.72023 25.4856 5.63486 25.4856 5.54948 25.4856C2.30518 25.5283 -0.170727 28.2604 2.55918e-05 31.3767C0.0854018 32.8709 0.725724 34.3223 1.8783 35.3895C2.94551 36.3714 4.35421 36.8837 5.80561 36.8837C5.89099 36.8837 5.97636 36.8837 6.06174 36.8837C6.14711 36.8837 6.23249 36.8837 6.31787 36.8837C6.40324 36.8837 6.48862 36.8837 6.65937 36.8837H37.3521C38.2486 36.8837 38.9316 36.158 38.9316 35.3042C38.8889 34.4931 38.1632 33.81 37.2668 33.81Z" fill="white"/>
<path fill-rule="evenodd" clip-rule="evenodd" d="M136.346 9.77584C133.315 9.77584 130.839 10.8431 128.961 12.4226V11.1846C128.961 11.1846 128.961 11.1846 128.961 11.0992C128.961 11.0992 128.961 11.0992 128.961 11.0138C128.961 10.1174 128.15 9.43433 127.253 9.43433C126.357 9.43433 125.546 10.16 125.546 11.0138V38.5058C125.631 39.4023 126.357 39.9999 127.253 39.9999C128.15 39.9999 128.833 39.3596 128.961 38.5058V38.3351C128.961 38.3351 128.961 38.3351 128.961 38.2497C128.961 38.1643 128.961 38.2497 128.961 38.1643V27.492C130.839 29.2849 133.401 30.3521 136.346 30.3521C142.493 30.3521 146.933 25.6563 146.933 20.0213C147.018 14.3863 142.749 9.77584 136.346 9.77584ZM136.346 27.1077C132.632 27.1077 129.302 24.0768 129.302 19.9786C129.302 16.2646 132.504 12.8495 136.346 12.8495C140.06 12.8495 143.39 16.1366 143.39 19.9786C143.347 24.1195 140.145 27.1077 136.346 27.1077Z" fill="white"/>
<path fill-rule="evenodd" clip-rule="evenodd" d="M156.495 27.0224H155.513C154.446 27.0224 153.293 26.2967 153.293 23.9915V1.79299C153.293 1.79299 153.293 1.79299 153.293 1.70761C153.293 1.62223 153.293 1.70761 153.293 1.62223C153.208 0.725756 152.482 0.0427246 151.585 0.0427246C150.689 0.0427246 150.006 0.768445 149.878 1.62223V24.3757C149.878 28.4739 151.927 30.2242 155.043 30.2242H156.452C157.348 30.2242 158.031 29.4984 158.031 28.6446C158.117 27.7482 157.391 27.0224 156.495 27.0224Z" fill="white"/>
<path fill-rule="evenodd" clip-rule="evenodd" d="M80.1255 11.1846C80.1255 10.2882 79.3998 9.47705 78.418 9.47705C77.5215 9.47705 76.7104 10.2028 76.7104 11.1846V28.3458C76.7104 29.2423 77.5215 29.9253 78.418 29.9253C79.3144 29.9253 80.1255 29.1996 80.1255 28.3458V11.1846Z" fill="white"/>
<path fill-rule="evenodd" clip-rule="evenodd" d="M121.405 18.7834C121.405 18.698 121.405 18.698 121.405 18.698V18.4419C121.235 13.5326 117.478 9.5625 111.886 9.5625C108.428 9.5625 105.653 11.0566 103.989 13.4899C102.409 11.1847 99.549 9.5625 96.0912 9.5625C90.4991 9.5625 86.7425 13.5753 86.5718 18.4419V28.4739C86.5718 29.3704 87.2975 30.0534 88.1512 30.0534C89.005 30.0534 89.7307 29.3277 89.7307 28.4739V18.7834C89.7307 15.411 92.6762 12.38 96.0485 12.38C99.3355 12.38 102.11 15.1548 102.281 18.4419V28.4739C102.281 29.3704 103.007 30.0534 103.86 30.0534C104.757 30.0534 105.44 29.3277 105.44 28.4739V19.2103V18.8688V18.7834V18.4419C105.611 15.1548 108.471 12.38 111.758 12.38C115.13 12.38 118.076 15.411 118.076 18.7834V28.4739C118.076 29.3704 118.801 30.0534 119.655 30.0534C120.509 30.0534 121.235 29.3277 121.363 28.4739V19.3384V19.2103V19.0396V18.7834H121.405Z" fill="white"/>
<path fill-rule="evenodd" clip-rule="evenodd" d="M180.869 19.2103C180.869 15.5817 178.095 9.86133 170.624 9.86133C164.648 9.86133 160.123 14.2156 160.123 20.1068C160.123 26.1687 164.733 30.3523 171.307 30.3523C174.253 30.3523 176.729 29.5412 178.778 27.9616C178.948 27.7909 179.503 27.3213 179.503 26.809C179.503 25.9126 178.607 24.9307 177.625 24.9307C177.113 24.9307 176.899 25.0161 176.558 25.1868C175.064 26.1687 173.442 27.1505 171.393 27.1505C167.935 27.1505 164.989 25.3576 164.264 22.3693L164.008 21.3021H178.692C179.973 21.2594 180.869 20.4483 180.869 19.2103ZM164.05 18.1431C164.691 14.856 167.423 12.9777 170.454 12.9777C173.57 12.9777 176.43 14.9414 176.942 18.1431H164.05Z" fill="white"/>
<path d="M69.4538 28.73C70.9052 27.6628 71.6735 26.254 71.6735 24.4611C71.6735 23.3512 71.4601 22.412 70.9905 21.729C70.5637 21.0032 69.7953 20.4056 68.7708 19.936C67.7462 19.4237 66.2522 18.9968 64.4166 18.6126C62.581 18.2284 61.343 17.8015 60.66 17.3319C59.977 16.8624 59.5928 16.222 59.5928 15.3682C59.5928 14.4718 59.977 13.7033 60.7454 13.1911C61.4711 12.6788 62.4529 12.4227 63.6482 12.4227C64.63 12.4227 65.4838 12.5507 66.1668 12.8069C66.8071 13.063 67.5328 13.4045 68.3012 13.8741C68.7281 14.1302 69.0269 14.301 69.283 14.4291C69.4965 14.5144 69.7526 14.5998 69.966 14.5998C70.2648 14.5998 70.5637 14.4718 70.7771 14.2156C71.0332 13.9168 71.1186 13.618 71.1186 13.1911C71.1186 12.4227 70.6917 11.7823 69.7953 11.1847C68.9842 10.6297 68.0877 10.2028 67.0205 9.94667C65.996 9.64784 64.8861 9.51978 63.7762 9.51978C62.2395 9.51978 60.8735 9.77591 59.6355 10.2882C58.4402 10.8005 57.5011 11.5262 56.8181 12.4653C56.1351 13.4045 55.7936 14.4718 55.7936 15.6244C55.7936 17.1185 56.3058 18.3565 57.3303 19.2103C58.3975 20.1068 60.1478 20.8325 62.581 21.3448C64.0324 21.6436 65.0996 21.9424 65.8253 22.1985C66.5937 22.4974 67.1059 22.7962 67.4047 23.1377C67.7035 23.5219 67.8743 23.9915 67.8743 24.5891C67.8743 25.5283 67.4474 26.254 66.679 26.7236C65.9106 27.1932 64.8008 27.4493 63.4347 27.4493C62.2395 27.4493 61.215 27.3213 60.4039 27.0224C59.5928 26.7236 58.7817 26.3821 57.928 25.9125C57.1596 25.4856 56.6046 25.2722 56.2631 25.2722C55.9216 25.2722 55.6655 25.4002 55.4094 25.6564C55.1959 25.9552 55.0679 26.2967 55.0679 26.6809C55.0679 27.0651 55.1532 27.4067 55.3667 27.7482C55.5801 28.047 55.9216 28.3885 56.3912 28.6446C58.1841 29.7973 60.4893 30.3949 63.3067 30.3949C65.9533 30.3522 67.9597 29.7973 69.4538 28.73Z" fill="white"/>
</g>
<defs>
<clipPath id="clip0">
<rect width="180.87" height="40" fill="white"/>
</clipPath>
</defs>
</svg>
